<?xml version="1.0" encoding="utf-8"?>
<!-- Generator: Adobe Illustrator 28.3.0, SVG Export Plug-In . SVG Version: 6.00 Build 0)  -->
<svg version="1.0" id="Layer_1" xmlns="http://www.w3.org/2000/svg" xmlns:xlink="http://www.w3.org/1999/xlink" x="0px" y="0px"
	 viewBox="0 0 64 64" style="enable-background:new 0 0 64 64;" xml:space="preserve">
<style type="text/css">
	.st0{fill:none;stroke:#282525;stroke-width:2;stroke-linecap:round;stroke-linejoin:round;stroke-miterlimit:10;}
</style>
<g>
	<circle class="st0" cx="32" cy="43" r="17.6"/>
	<circle class="st0" cx="32" cy="43" r="13.4"/>
	<path class="st0" d="M32,52.2c-5,0-9.1-4.1-9.1-9.1"/>
	<path class="st0" d="M39.9,27.2h19.4c1.6,0,2.9,1.3,2.9,2.9v25.6c0,1.6-1.3,2.9-2.9,2.9H40"/>
	<path class="st0" d="M24,58.8H4.7c-1.6,0-2.9-1.3-2.9-2.9V30.2c0-1.6,1.3-2.9,2.9-2.9h19.4"/>
	<polyline class="st0" points="26.4,26.3 26.4,18.2 37.6,18.2 37.6,26.3 	"/>
	<path class="st0" d="M45.2,18.2H18.8c-1.2,0-2.2-1-2.2-2.2V5.6c0-1.2,1-2.2,2.2-2.2h26.3c1.2,0,2.2,1,2.2,2.2V16
		C47.4,17.2,46.4,18.2,45.2,18.2z"/>
	<path class="st0" d="M39.7,14.1H24.3c-1.8,0-3.3-1.5-3.3-3.3v0c0-1.8,1.5-3.3,3.3-3.3h15.4c1.8,0,3.3,1.5,3.3,3.3v0
		C43,12.6,41.5,14.1,39.7,14.1z"/>
	<line class="st0" x1="25.3" y1="10.8" x2="38.2" y2="10.8"/>
	<path class="st0" d="M11,27.2H6v-2.6c0-0.8,0.7-1.5,1.5-1.5h2c0.8,0,1.5,0.7,1.5,1.5V27.2z"/>
	<path class="st0" d="M19.3,27.2h-5v-2.6c0-0.8,0.7-1.5,1.5-1.5h2c0.8,0,1.5,0.7,1.5,1.5V27.2z"/>
	<path class="st0" d="M49.7,27.2h-5v-2.6c0-0.8,0.7-1.5,1.5-1.5h2c0.8,0,1.5,0.7,1.5,1.5V27.2z"/>
	<path class="st0" d="M58,27.2h-5v-2.6c0-0.8,0.7-1.5,1.5-1.5h2c0.8,0,1.5,0.7,1.5,1.5V27.2z"/>
	<polyline class="st0" points="15.2,37.6 1.7,37.6 1.7,48.4 15.2,48.4 	"/>
	<polyline class="st0" points="48.8,48.4 62.3,48.4 62.3,37.6 48.8,37.6 	"/>
</g>
</svg>
