<?xml version="1.0" encoding="utf-8"?>
<!-- Generator: Adobe Illustrator 28.3.0, SVG Export Plug-In . SVG Version: 6.00 Build 0)  -->
<svg version="1.0" id="Layer_1" xmlns="http://www.w3.org/2000/svg" xmlns:xlink="http://www.w3.org/1999/xlink" x="0px" y="0px"
	 viewBox="0 0 64 64" style="enable-background:new 0 0 64 64;" xml:space="preserve">
<style type="text/css">
	.st0{fill:none;stroke:#282525;stroke-width:2;stroke-linecap:round;stroke-linejoin:round;stroke-miterlimit:10;}
</style>
<g>
	<line class="st0" x1="49" y1="49.5" x2="49" y2="53.9"/>
	<path class="st0" d="M13.6,33.9v-5.2c0-9.8,7.9-17.7,17.7-17.7h0c9.8,0,17.7,7.9,17.7,17.7v16.5"/>
	<line class="st0" x1="13.6" y1="53.9" x2="13.6" y2="39"/>
	<line class="st0" x1="42.8" y1="27.9" x2="42.8" y2="52.1"/>
	<path class="st0" d="M19.7,41V30c0-6.4,5.2-11.5,11.5-11.5h0c3.5,0,6.6,1.5,8.7,3.9"/>
	<line class="st0" x1="19.7" y1="52.1" x2="19.7" y2="46.8"/>
	<line class="st0" x1="37.7" y1="43.8" x2="37.7" y2="52.1"/>
	<path class="st0" d="M27.5,25.8c1.1-0.8,2.4-1.2,3.8-1.2h0c3.6,0,6.4,2.9,6.4,6.4v6.9"/>
	<line class="st0" x1="24.8" y1="52.1" x2="24.8" y2="31"/>
	<line class="st0" x1="31.3" y1="30.8" x2="31.3" y2="50.5"/>
	<path class="st0" d="M3.5,21.9V7.5c0-2.2,1.8-4,4-4h14.4"/>
	<path class="st0" d="M60.5,42.1v14.4c0,2.2-1.8,4-4,4H42.1"/>
	<path class="st0" d="M3.5,42.1v14.4c0,2.2,1.8,4,4,4h14.4"/>
	<path class="st0" d="M42.1,3.5h14.4c2.2,0,4,1.8,4,4v14.4"/>
</g>
</svg>
