<?xml version="1.0" encoding="utf-8"?>
<!-- Generator: Adobe Illustrator 28.3.0, SVG Export Plug-In . SVG Version: 6.00 Build 0)  -->
<svg version="1.0" id="Layer_1" xmlns="http://www.w3.org/2000/svg" xmlns:xlink="http://www.w3.org/1999/xlink" x="0px" y="0px"
	 viewBox="0 0 64 64" style="enable-background:new 0 0 64 64;" xml:space="preserve">
<style type="text/css">
	.st0{fill:none;stroke:#282525;stroke-width:2;stroke-linecap:round;stroke-linejoin:round;stroke-miterlimit:10;}
</style>
<g>
	<path class="st0" d="M54,36.9c0.3,1.3,1.3,2.4,2.5,2.9c3.4,1.3,5.5,2.8,5.5,4.5c0,4.3-13.5,7.8-30.1,7.8S1.9,48.6,1.9,44.3
		c0-1.7,2-3.2,5.5-4.5c1.3-0.5,2.3-1.6,2.5-2.9c1-5,3.4-15.1,7-21.6c2.1-3.9,7.5-4.5,10.3-1l0,0c2.4,3,7,3,9.5,0l0,0
		c2.8-3.4,8.2-2.9,10.3,1C50.6,21.8,53,31.9,54,36.9z"/>
	<path class="st0" d="M12.1,28c4.6,2.5,11.8,4,19.9,4s15.2-1.6,19.9-4"/>
	<path class="st0" d="M10.1,35.9c5.6,2.3,13.4,3.7,21.9,3.7s16.2-1.4,21.8-3.7"/>
</g>
</svg>
