<?xml version="1.0" encoding="utf-8"?>
<!-- Generator: Adobe Illustrator 28.3.0, SVG Export Plug-In . SVG Version: 6.00 Build 0)  -->
<svg version="1.0" id="Layer_1" xmlns="http://www.w3.org/2000/svg" xmlns:xlink="http://www.w3.org/1999/xlink" x="0px" y="0px"
	 viewBox="0 0 64 64" style="enable-background:new 0 0 64 64;" xml:space="preserve">
<style type="text/css">
	.st0{fill:none;stroke:#282525;stroke-width:2;stroke-linecap:round;stroke-linejoin:round;stroke-miterlimit:10;}
</style>
<g>
	<path class="st0" d="M43.5,62.1h-23c-1.5,0-2.8-1.2-2.8-2.8V27.2c0-1.5,1.2-2.8,2.8-2.8h23c1.5,0,2.8,1.2,2.8,2.8v32.1
		C46.3,60.9,45.1,62.1,43.5,62.1z"/>
	<path class="st0" d="M26.2,24.5h-4.8V4.3c0-1.3,1.1-2.4,2.4-2.4h0c1.3,0,2.4,1.1,2.4,2.4V24.5z"/>
	<path class="st0" d="M39.8,24.5h-5.4v-3.2c0-0.8,0.7-1.5,1.5-1.5h2.4c0.8,0,1.5,0.7,1.5,1.5V24.5z"/>
	<rect x="21.6" y="28.4" class="st0" width="20.9" height="11.5"/>
	<path class="st0" d="M36.2,56.8h-8.7c-3.4,0-6.2-2.8-6.2-6.2v0c0-3.4,2.8-6.2,6.2-6.2h8.7c3.4,0,6.2,2.8,6.2,6.2v0
		C42.4,54,39.7,56.8,36.2,56.8z"/>
	<line class="st0" x1="32" y1="47.9" x2="32" y2="53.3"/>
	<line class="st0" x1="27.2" y1="47.9" x2="27.2" y2="53.3"/>
	<line class="st0" x1="36.6" y1="47.9" x2="36.6" y2="53.3"/>
	<line class="st0" x1="21.4" y1="8.4" x2="26.2" y2="8.4"/>
	<line class="st0" x1="21.4" y1="16" x2="26.2" y2="16"/>
</g>
</svg>
