<?xml version="1.0" encoding="utf-8"?>
<!-- Generator: Adobe Illustrator 28.3.0, SVG Export Plug-In . SVG Version: 6.00 Build 0)  -->
<svg version="1.0" id="Layer_1" xmlns="http://www.w3.org/2000/svg" xmlns:xlink="http://www.w3.org/1999/xlink" x="0px" y="0px"
	 viewBox="0 0 64 64" style="enable-background:new 0 0 64 64;" xml:space="preserve">
<style type="text/css">
	.st0{fill:none;stroke:#282525;stroke-width:2;stroke-linecap:round;stroke-linejoin:round;stroke-miterlimit:10;}
</style>
<g>
	<path class="st0" d="M1.8,19.2v8.3c0,5.2,4.2,9.4,9.4,9.4h14.4"/>
	<path class="st0" d="M38.4,36.9h14.4c5.2,0,9.4-4.2,9.4-9.4v-8.3"/>
	<path class="st0" d="M59.2,61.1H4.8c-1.7,0-3-1.3-3-3V19.2c0-1.7,1.3-3,3-3h54.3c1.7,0,3,1.3,3,3v38.9
		C62.2,59.8,60.8,61.1,59.2,61.1z"/>
	<polyline class="st0" points="41.1,16.2 38.6,16.2 25.4,16.2 22.9,16.2 	"/>
	<path class="st0" d="M25.4,16.2h-5v-2.5c0-0.9,0.7-1.6,1.6-1.6h1.9c0.9,0,1.6,0.7,1.6,1.6V16.2z"/>
	<path class="st0" d="M43.6,16.2h-5v-2.5c0-0.9,0.7-1.6,1.6-1.6h1.9c0.9,0,1.6,0.7,1.6,1.6V16.2z"/>
	<path class="st0" d="M22.9,12.1V12c0-5,4.1-9.1,9.1-9.1h0c5,0,9.1,4.1,9.1,9.1v0.1"/>
	<path class="st0" d="M35.5,45.7h-6.9c-1.6,0-2.9-1.3-2.9-2.9V30.9c0-1.6,1.3-2.9,2.9-2.9h6.9c1.6,0,2.9,1.3,2.9,2.9v11.8
		C38.4,44.4,37.1,45.7,35.5,45.7z"/>
	<circle class="st0" cx="32.1" cy="34.2" r="2.7"/>
	<line class="st0" x1="32.1" y1="36.9" x2="32.1" y2="42.2"/>
</g>
</svg>
