<?xml version="1.0" encoding="utf-8"?>
<!-- Generator: Adobe Illustrator 28.3.0, SVG Export Plug-In . SVG Version: 6.00 Build 0)  -->
<svg version="1.0" id="Layer_1" xmlns="http://www.w3.org/2000/svg" xmlns:xlink="http://www.w3.org/1999/xlink" x="0px" y="0px"
	 viewBox="0 0 64 64" style="enable-background:new 0 0 64 64;" xml:space="preserve">
<style type="text/css">
	.st0{fill:none;stroke:#282525;stroke-width:2;stroke-linecap:round;stroke-linejoin:round;stroke-miterlimit:10;}
</style>
<g>
	<path class="st0" d="M28.9,36.5c1,6.5-8,16.7-14.6,16.7S2.4,47.9,2.4,41.3s5.3-11.9,11.9-11.9S27.9,30.3,28.9,36.5z"/>
	<path class="st0" d="M35.1,36.5c-1,6.5,8,16.7,14.6,16.7s11.9-5.3,11.9-11.9s-5.3-11.9-11.9-11.9S36.1,30.3,35.1,36.5z"/>
	<path class="st0" d="M5.6,33.1l5.7-16.8c1.1-3.3,4.2-5.6,7.7-5.6h4.4"/>
	<path class="st0" d="M40.6,10.8h4.4c3.5,0,6.6,2.2,7.8,5.6l5.7,16.8"/>
	<line class="st0" x1="27.3" y1="33" x2="36.7" y2="33"/>
	<path class="st0" d="M27.6,42.6L27.6,42.6c2.8-1.1,6-1.1,8.8,0h0"/>
	<line class="st0" x1="10.7" y1="35.8" x2="7.6" y2="40.9"/>
	<line class="st0" x1="14.5" y1="36.8" x2="10.1" y2="44"/>
	<line class="st0" x1="44.5" y1="34.2" x2="41.4" y2="39.3"/>
	<line class="st0" x1="48.3" y1="35.2" x2="43.9" y2="42.4"/>
</g>
</svg>
