<?xml version="1.0" encoding="utf-8"?>
<!-- Generator: Adobe Illustrator 28.3.0, SVG Export Plug-In . SVG Version: 6.00 Build 0)  -->
<svg version="1.0" id="Layer_1" xmlns="http://www.w3.org/2000/svg" xmlns:xlink="http://www.w3.org/1999/xlink" x="0px" y="0px"
	 viewBox="0 0 64 64" style="enable-background:new 0 0 64 64;" xml:space="preserve">
<style type="text/css">
	.st0{fill:none;stroke:#282525;stroke-width:2;stroke-linecap:round;stroke-linejoin:round;stroke-miterlimit:10;}
</style>
<g>
	<path class="st0" d="M38.7,42.9L21.1,25.3c-1.4-1.4-1.4-3.6,0-5L35.8,5.6l22.6,22.6L43.7,42.9C42.3,44.3,40,44.3,38.7,42.9z"/>
	<path class="st0" d="M41.1,11l-3.3-3.3l4.3-4.3c0.9-0.9,2.4-0.9,3.3,0l0,0c0.9,0.9,0.9,2.4,0,3.3L41.1,11z"/>
	<path class="st0" d="M56.3,26.1L53,22.9l4.3-4.3c0.9-0.9,2.4-0.9,3.3,0l0,0c0.9,0.9,0.9,2.4,0,3.3L56.3,26.1z"/>
	<polyline class="st0" points="45.5,6.7 47.5,8.7 51.1,8.2 50.5,11.7 54.5,11.5 54,15.2 57.3,18.5 	"/>
	<path class="st0" d="M32.6,49.4l-1.2-1.2l3.8-3.8l1.2,1.2c0.7,0.7,0.7,1.8,0,2.5L35,49.4C34.4,50,33.3,50,32.6,49.4z"/>
	<path class="st0" d="M26.3,55.6l-1.2-1.2l3.8-3.8l1.2,1.2c0.7,0.7,0.7,1.8,0,2.5l-1.4,1.4C28.1,56.3,27,56.3,26.3,55.6z"/>
	<path class="st0" d="M4.3,44.2c0.4-0.4,1-0.6,1.6-0.4c1.2,0.3,2.6-0.1,3.5-1.1c0.8-0.8,1.2-2,1.1-3.1c-0.1-1,0.2-1.9,0.9-2.6
		l0.6-0.6c0.7-0.7,1.6-0.9,2.6-0.9c1.1,0.1,2.2-0.3,3.1-1.1c0.7-0.7,1.1-1.7,1.1-2.6c0.1-1.4,0.5-2.7,1.5-3.7l1.8-1.8l15.5,15.5
		L19.3,60.2c-1.6,1.6-4.1,1.6-5.7,0l-9.9-9.9c-1.6-1.6-1.6-4.1,0-5.7L4.3,44.2z"/>
	<path class="st0" d="M21.5,58.1l-9.1-9.1c-0.8-0.8-0.8-2.1,0-3l9.6-9.6c0.8-0.8,2.1-0.8,3,0l9.1,9.1L21.5,58.1z"/>
</g>
</svg>
