<?xml version="1.0" encoding="utf-8"?>
<!-- Generator: Adobe Illustrator 28.3.0, SVG Export Plug-In . SVG Version: 6.00 Build 0)  -->
<svg version="1.0" id="Layer_1" xmlns="http://www.w3.org/2000/svg" xmlns:xlink="http://www.w3.org/1999/xlink" x="0px" y="0px"
	 viewBox="0 0 64 64" style="enable-background:new 0 0 64 64;" xml:space="preserve">
<style type="text/css">
	.st0{fill:none;stroke:#282525;stroke-width:2;stroke-linecap:round;stroke-linejoin:round;stroke-miterlimit:10;}
</style>
<g>
	<path class="st0" d="M37.6,27.1L8.1,44.4c-1.2,0.7-2.8,0.3-3.6-0.9l-2.1-3.6c-1.4-2.3-0.6-5.3,1.7-6.7l27.5-16.1
		c0.9-0.5,2.1-0.2,2.7,0.7l3.9,6.7C38.8,25.4,38.5,26.6,37.6,27.1z"/>
	<path class="st0" d="M23.7,57.7l-6.2,3.6c-1,0.6-2.3,0.2-2.8-0.9l0,0c-2.1-4.5-3.9-9.2-5.2-14L8.8,44l10.7-6.3l0.5,3.9
		c0.5,4.3,2.1,8.4,4.6,11.9l0,0C25.6,55,25.1,56.9,23.7,57.7z"/>
	<path class="st0" d="M20.9,45.9l5.4-3.2c1.3-0.8,2.2-2.2,2.1-3.8l-0.1-6.4"/>
	<path class="st0" d="M21.5,36.6c0,0,0.6,3.2,3.9,3.3"/>
	<path class="st0" d="M60.7,8.9L40.5,20.8l-3.3-5.7L57.4,3.2c0.8-0.5,1.9-0.2,2.3,0.6l1.6,2.7C61.8,7.4,61.6,8.4,60.7,8.9z"/>
	<rect x="35.3" y="17" transform="matrix(0.8624 -0.5063 0.5063 0.8624 -4.4351 21.448)" class="st0" width="3.8" height="3.8"/>
	<polyline class="st0" points="13.2,41.5 12.2,35.8 36.5,21.5 	"/>
	<line class="st0" x1="6.4" y1="36.1" x2="6.9" y2="38.9"/>
</g>
</svg>
