<?xml version="1.0" encoding="utf-8"?>
<!-- Generator: Adobe Illustrator 28.3.0, SVG Export Plug-In . SVG Version: 6.00 Build 0)  -->
<svg version="1.0" id="Layer_1" xmlns="http://www.w3.org/2000/svg" xmlns:xlink="http://www.w3.org/1999/xlink" x="0px" y="0px"
	 viewBox="0 0 64 64" style="enable-background:new 0 0 64 64;" xml:space="preserve">
<style type="text/css">
	.st0{fill:none;stroke:#282525;stroke-width:2;stroke-linecap:round;stroke-linejoin:round;stroke-miterlimit:10;}
</style>
<g>
	<path class="st0" d="M50.8,62.1H17.3c-2.1,0-3.7-1.7-3.7-3.7V5.7c0-2.1,1.7-3.7,3.7-3.7h33.5c2.1,0,3.7,1.7,3.7,3.7v52.6
		C54.5,60.4,52.8,62.1,50.8,62.1z"/>
	<path class="st0" d="M40.4,30.4H26.5c-1.3,0-2.3-1-2.3-2.3V10.5c0-1.3,1-2.3,2.3-2.3h13.8c1.3,0,2.3,1,2.3,2.3V28
		C42.7,29.3,41.6,30.4,40.4,30.4z"/>
	<path class="st0" d="M42.6,9.8c-0.7,4.5-4.5,7.9-9.1,7.9s-8.5-3.4-9.1-7.9c0,0,0,0,0,0"/>
	<path class="st0" d="M24.4,28.8c0.7-4.4,4.5-7.7,9.1-7.7c4.6,0,8.4,3.3,9.1,7.7"/>
	<path class="st0" d="M28.7,30.4c0-2.7,2.1-4.8,4.8-4.8s4.8,2.1,4.8,4.8"/>
	<path class="st0" d="M38.2,8.1c0,0.1,0,0.2,0,0.3c0,2.6-2.1,4.8-4.8,4.8s-4.8-2.2-4.8-4.8c0-0.1,0-0.2,0-0.3"/>
	<line class="st0" x1="13.5" y1="36.4" x2="54.5" y2="36.4"/>
	<path class="st0" d="M46.9,56.9H21.2c-1.4,0-2.5-1.1-2.5-2.5V43.6c0-1.4,1.1-2.5,2.5-2.5h25.7c1.4,0,2.5,1.1,2.5,2.5v10.9
		C49.4,55.8,48.3,56.9,46.9,56.9z"/>
	<line class="st0" x1="34" y1="41.1" x2="34" y2="56.9"/>
	<line class="st0" x1="26.4" y1="41.1" x2="26.4" y2="56.9"/>
	<line class="st0" x1="41.7" y1="41.1" x2="41.7" y2="56.9"/>
	<line class="st0" x1="48.9" y1="49" x2="19.1" y2="49"/>
	<path class="st0" d="M13.5,13.7h-2.2c-1,0-1.9-0.8-1.9-1.9V10c0-1,0.8-1.9,1.9-1.9h2.2V13.7z"/>
	<path class="st0" d="M13.5,23.2h-2.2c-1,0-1.9-0.8-1.9-1.9v-1.8c0-1,0.8-1.9,1.9-1.9h2.2V23.2z"/>
	<path class="st0" d="M13.5,32.7h-2.2c-1,0-1.9-0.8-1.9-1.9V29c0-1,0.8-1.9,1.9-1.9h2.2V32.7z"/>
</g>
</svg>
