<?xml version="1.0" encoding="utf-8"?>
<!-- Generator: Adobe Illustrator 28.3.0, SVG Export Plug-In . SVG Version: 6.00 Build 0)  -->
<svg version="1.0" id="Layer_1" xmlns="http://www.w3.org/2000/svg" xmlns:xlink="http://www.w3.org/1999/xlink" x="0px" y="0px"
	 viewBox="0 0 64 64" style="enable-background:new 0 0 64 64;" xml:space="preserve">
<style type="text/css">
	.st0{fill:none;stroke:#282525;stroke-width:2;stroke-linecap:round;stroke-linejoin:round;stroke-miterlimit:10;}
</style>
<g>
	<path class="st0" d="M22.5,17.7v5.2c0,1.5,0.4,3,1,4.3c0.3,0.6,0.6,1.1,1,1.6c1.7,2.2,4.4,3.6,7.4,3.6c3,0,5.7-1.4,7.4-3.6
		c0.4-0.5,0.7-1,1-1.6c0.7-1.3,1-2.8,1-4.3v-5.2"/>
	<line class="st0" x1="37.8" y1="33.7" x2="37.8" y2="33.7"/>
	<path class="st0" d="M41.2,37c0.9,0.4,1.8,0.6,2.8,0.6h1.5c5.4,0,9.8,4.4,9.8,9.8v15.2H8.8V47.4c0-5.4,4.4-9.8,9.8-9.8H20
		c1,0,2-0.2,2.8-0.6"/>
	<polyline class="st0" points="23.6,27.2 15,32.3 22.8,37 23.1,37.1 19.5,44 32,51 26.2,33.7 24.6,28.8 	"/>
	<polyline class="st0" points="40.4,27.2 49,32.3 41.2,37 40.9,37.1 44.5,44 32,51 37.8,33.7 37.8,33.7 39.4,28.8 	"/>
	<line class="st0" x1="32" y1="51" x2="32" y2="62.5"/>
	<path class="st0" d="M22.8,12.4c-4.3,0.6-7.1,1.6-7.1,2.7c0,1.1,2.7,2,6.9,2.6c2.7,0.4,5.9,0.6,9.5,0.6s6.8-0.2,9.5-0.6
		c4.2-0.6,6.9-1.5,6.9-2.6c0-1.1-2.8-2.1-7.1-2.7"/>
	<path class="st0" d="M39.9,14.1L39.9,14.1c-5.2,0.8-10.5,0.8-15.7,0l0,0c-0.9-0.1-1.5-1-1.4-1.9L24,3.4c0.2-1.7,2.3-2.5,3.7-1.3
		l1.9,1.7c1.4,1.2,3.4,1.2,4.8,0L36.3,2c1.3-1.2,3.4-0.4,3.7,1.4l1.3,8.9C41.4,13.2,40.8,14,39.9,14.1z"/>
</g>
</svg>
