<?xml version="1.0" encoding="utf-8"?>
<!-- Generator: Adobe Illustrator 28.3.0, SVG Export Plug-In . SVG Version: 6.00 Build 0)  -->
<svg version="1.0" id="Layer_1" xmlns="http://www.w3.org/2000/svg" xmlns:xlink="http://www.w3.org/1999/xlink" x="0px" y="0px"
	 viewBox="0 0 64 64" style="enable-background:new 0 0 64 64;" xml:space="preserve">
<style type="text/css">
	.st0{fill:none;stroke:#282525;stroke-width:2;stroke-linecap:round;stroke-linejoin:round;stroke-miterlimit:10;}
</style>
<g>
	<circle class="st0" cx="32" cy="32" r="21.8"/>
	<circle class="st0" cx="32" cy="32" r="14.6"/>
	<polyline class="st0" points="32,46.6 32,53.8 32,62.2 	"/>
	<polyline class="st0" points="32,17.4 32,10.2 32,1.8 	"/>
	<polyline class="st0" points="1.8,32 10.2,32 17.4,32 	"/>
	<polyline class="st0" points="46.6,32 53.8,32 62.2,32 	"/>
	<circle class="st0" cx="32" cy="26.9" r="4.5"/>
	<path class="st0" d="M22.8,43.3c-0.2-0.7-0.3-1.5-0.3-2.3c0-5.3,4.2-9.5,9.5-9.6c0,0,0.1,0,0.1,0c5.3,0,9.6,4.3,9.6,9.6
		c0,0.7-0.1,1.4-0.2,2"/>
</g>
</svg>
