<?xml version="1.0" encoding="utf-8"?>
<!-- Generator: Adobe Illustrator 28.3.0, SVG Export Plug-In . SVG Version: 6.00 Build 0)  -->
<svg version="1.0" id="Layer_1" xmlns="http://www.w3.org/2000/svg" xmlns:xlink="http://www.w3.org/1999/xlink" x="0px" y="0px"
	 viewBox="0 0 64 64" style="enable-background:new 0 0 64 64;" xml:space="preserve">
<style type="text/css">
	.st0{fill:none;stroke:#282525;stroke-width:2;stroke-linecap:round;stroke-linejoin:round;stroke-miterlimit:10;}
</style>
<g>
	<path class="st0" d="M36.1,26.6h22.4c1.7,0,3.1,1.4,3.1,3.1v27.7c0,1.7-1.4,3.1-3.1,3.1H5.5c-1.7,0-3.1-1.4-3.1-3.1V29.6
		c0-1.7,1.4-3.1,3.1-3.1h3.8c1.5,0,2.7-1.2,2.7-2.7v-2.2c0-1.9,1.5-3.4,3.4-3.4h13.6c1.5,0,2.9,1,3.3,2.5l1,3.8
		C33.7,25.7,34.8,26.6,36.1,26.6z"/>
	<polyline class="st0" points="7.3,26.6 7.3,8.5 12,8.5 53.2,8.5 53.2,26.6 	"/>
	<polyline class="st0" points="12,8.5 12,3.6 57.9,3.6 57.9,26.6 	"/>
	<path class="st0" d="M35.8,44.3l1.8,8.1h-9.8l1.8-8.1c-1.3-1-2.1-2.5-2.1-4.2c0-2.9,2.3-5.2,5.2-5.2s5.2,2.3,5.2,5.2
		C37.9,41.8,37.1,43.3,35.8,44.3z"/>
</g>
</svg>
