<?xml version="1.0" encoding="utf-8"?>
<!-- Generator: Adobe Illustrator 28.3.0, SVG Export Plug-In . SVG Version: 6.00 Build 0)  -->
<svg version="1.0" id="Layer_1" xmlns="http://www.w3.org/2000/svg" xmlns:xlink="http://www.w3.org/1999/xlink" x="0px" y="0px"
	 viewBox="0 0 64 64" style="enable-background:new 0 0 64 64;" xml:space="preserve">
<style type="text/css">
	.st0{fill:none;stroke:#282525;stroke-width:2;stroke-linecap:round;stroke-linejoin:round;stroke-miterlimit:10;}
</style>
<g>
	<path class="st0" d="M21.5,59.9L4.1,42.5c-1.9-1.9-1.9-5,0-6.9L32.9,6.9l24.2,24.2L28.3,59.9C26.4,61.8,23.4,61.8,21.5,59.9z"/>
	<path class="st0" d="M17.7,46.3c0,0-1.2-11.3,5-17.5s17.5-5,17.5-5s1.2,11.3-5,17.5S17.7,46.3,17.7,46.3z"/>
	<circle class="st0" cx="28.9" cy="35.1" r="4.6"/>
	<path class="st0" d="M10.1,60.3l-6.4-6.4c-1.9-1.9-1.9-5,0-6.9l2.4-2.4l13.3,13.3L17,60.3C15.1,62.2,12,62.2,10.1,60.3z"/>
	<line class="st0" x1="7.4" y1="51.6" x2="12.4" y2="56.6"/>
	<path class="st0" d="M52.8,26.9L37.1,11.2l8.3-8.3c0.8-0.8,2.2-0.8,3,0l12.6,12.6c0.8,0.8,0.8,2.2,0,3L52.8,26.9z"/>
	<line class="st0" x1="45.2" y1="9.5" x2="47.6" y2="11.9"/>
	<line class="st0" x1="52.1" y1="16.4" x2="54.5" y2="18.8"/>
</g>
</svg>
