<?xml version="1.0" encoding="utf-8"?>
<!-- Generator: Adobe Illustrator 28.3.0, SVG Export Plug-In . SVG Version: 6.00 Build 0)  -->
<svg version="1.0" id="Layer_1" xmlns="http://www.w3.org/2000/svg" xmlns:xlink="http://www.w3.org/1999/xlink" x="0px" y="0px"
	 viewBox="0 0 64 64" style="enable-background:new 0 0 64 64;" xml:space="preserve">
<style type="text/css">
	.st0{fill:none;stroke:#282525;stroke-width:2;stroke-linecap:round;stroke-linejoin:round;stroke-miterlimit:10;}
</style>
<g>
	<circle class="st0" cx="24.5" cy="24.5" r="21.5"/>
	<circle class="st0" cx="24.5" cy="24.5" r="16.4"/>
	<line class="st0" x1="42.6" y1="48" x2="36.7" y2="42.1"/>
	<line class="st0" x1="48" y1="42.6" x2="42.1" y2="36.7"/>
	<path class="st0" d="M60.3,54.6l-5.7,5.7c-0.9,0.9-2.5,0.9-3.4,0l-8.7-8.7c-0.9-0.9-0.9-2.5,0-3.4l5.7-5.7c0.9-0.9,2.5-0.9,3.4,0
		l8.7,8.7C61.2,52.1,61.2,53.6,60.3,54.6z"/>
	<path class="st0" d="M37.8,24.3c0,0-5.9,7.4-13.2,7.4c-7.3,0-13.2-7.4-13.2-7.4S17.3,17,24.6,17C31.9,17,37.8,24.3,37.8,24.3z"/>
	<circle class="st0" cx="24.6" cy="24.3" r="3.8"/>
</g>
</svg>
