<svg id="Capa_1" enable-background="new 0 0 511.998 511.998" height="512" viewBox="0 0 511.998 511.998" width="512" xmlns="http://www.w3.org/2000/svg"><g><path d="m392.908 144.408c0-76.268-62.364-137.971-138.879-136.895-74.076 1.041-134.371 61.749-134.935 135.829-.301 39.503 16.134 75.166 42.634 100.336 10.5 9.973 16.296 23.923 16.296 38.404v42.047h155.951v-42.047c0-14.638 6.041-28.599 16.622-38.714 26.07-24.925 42.311-60.044 42.311-98.96z" fill="#f9ef63"/><path d="m254.029 7.512c-4.901.069-9.738.406-14.505.984 67.809 8.17 120.364 65.9 120.364 135.911 0 38.916-16.242 74.035-42.312 98.96-10.581 10.116-16.622 24.076-16.622 38.714v42.047h33.021v-42.047c0-14.638 6.041-28.599 16.622-38.714 26.071-24.925 42.312-60.044 42.312-98.96-.001-76.268-62.365-137.97-138.88-136.895z" fill="#f6e738"/><path d="m255.999 504.499c-48.155 0-88.609-36.21-93.924-84.07l-9.462-85.203c-.657-5.919 3.976-11.096 9.932-11.096h186.908c5.956 0 10.589 5.177 9.932 11.096l-9.462 85.203c-5.315 47.86-45.769 84.07-93.924 84.07z" fill="#738b95"/><path d="m349.453 324.129h-33.021c5.956 0 10.589 5.177 9.932 11.096l-9.462 85.203c-4.694 42.27-36.803 75.433-77.414 82.608 5.371.949 10.885 1.462 16.51 1.462 48.155 0 88.608-36.21 93.924-84.07l9.462-85.203c.658-5.919-3.975-11.096-9.931-11.096z" fill="#617881"/><path d="m255.999 96.68c-4.589-5.057-11.202-8.173-18.42-8.173-12.078 0-22.173 8.659-24.403 20.095-.131.669-.548 1.236-1.147 1.561-.021.011-.042.023-.063.034-.633.346-1.381.375-2.037.075-4.411-2.014-9.39-2.787-14.429-2.077-11.791 1.661-21.073 11.438-22.121 23.299-.375 4.245.279 8.377 1.804 12.123-9.264 6.79-14.641 18.496-12.437 30.851 2.69 15.078 16.167 25.844 31.483 25.844h123.539c15.316 0 28.793-10.766 31.483-25.844 2.204-12.354-3.173-24.06-12.437-30.851 1.525-3.746 2.179-7.879 1.804-12.123-1.048-11.861-10.33-21.638-22.121-23.299-5.038-.71-10.018.063-14.429 2.077-.657.3-1.404.271-2.037-.075-.021-.011-.042-.023-.063-.034-.599-.325-1.016-.892-1.147-1.561-2.23-11.436-12.325-20.095-24.403-20.095-7.217 0-13.831 3.116-18.419 8.173z" fill="#dd636e"/><g fill="#da4a54"><path d="m188.082 110.461c.31-.027.617-.108.9-.263.021-.011.042-.023.063-.034.173-.094.326-.213.466-.344-.486.196-.959.415-1.429.641z"/><path d="m336.815 143.618c1.525-3.746 2.179-7.879 1.804-12.123-1.048-11.861-10.33-21.638-22.121-23.299-5.038-.71-10.018.062-14.429 2.077-.363.166-.753.221-1.137.188 8.082 3.866 13.887 11.811 14.702 21.034.375 4.245-.279 8.377-1.804 12.123 9.264 6.79 14.641 18.496 12.437 30.851-2.69 15.078-16.167 25.844-31.483 25.844h22.984c15.316 0 28.793-10.766 31.483-25.844 2.204-12.354-3.173-24.06-12.436-30.851z"/></g><g><path d="m256.007 174.281c3.774 0 7.023-2.842 7.446-6.681 1.91-17.362 11.447-25.92 11.95-26.359 3.135-2.67 3.532-7.373.882-10.531-2.662-3.173-7.393-3.586-10.566-.924-.594.498-14.568 12.474-17.176 36.174-.453 4.117 2.518 7.822 6.635 8.275.279.031.556.046.829.046z"/><path d="m100.702 48.531-43.555-23.111c-3.659-1.942-8.199-.549-10.141 3.109-1.941 3.659-.55 8.199 3.109 10.141l43.555 23.111c1.12.595 2.323.877 3.509.877 2.687 0 5.285-1.448 6.632-3.986 1.941-3.659.55-8.199-3.109-10.141z"/><path d="m86.816 184.321-45.896 18.021c-3.855 1.514-5.754 5.867-4.24 9.723 1.161 2.955 3.989 4.761 6.983 4.761.912 0 1.839-.167 2.739-.521l45.896-18.021c3.855-1.514 5.754-5.867 4.24-9.723-1.514-3.855-5.866-5.754-9.722-4.24z"/><path d="m85.702 126.393c4.133-.271 7.264-3.842 6.991-7.976-.271-4.134-3.869-7.282-7.976-6.991l-49.2 3.234c-4.133.271-7.264 3.842-6.991 7.976.261 3.966 3.558 7.008 7.476 7.008.166 0 .333-.005.5-.017z"/><path d="m461.882 38.67c3.659-1.941 5.051-6.481 3.109-10.141-1.94-3.657-6.481-5.052-10.141-3.109l-43.556 23.111c-3.659 1.941-5.051 6.481-3.109 10.141 1.347 2.538 3.944 3.986 6.632 3.986 1.186 0 2.389-.282 3.509-.877z"/><path d="m471.078 202.342-45.896-18.021c-3.856-1.514-8.207.385-9.723 4.24-1.514 3.855.385 8.209 4.24 9.723l45.896 18.021c.9.354 1.827.521 2.739.521 2.994 0 5.822-1.806 6.983-4.761 1.515-3.856-.384-8.209-4.239-9.723z"/><path d="m476.481 114.66-49.2-3.234c-4.145-.293-7.704 2.857-7.976 6.991s2.858 7.704 6.991 7.976l49.2 3.234c.168.012.334.017.5.017 3.917 0 7.216-3.042 7.476-7.008.273-4.134-2.858-7.704-6.991-7.976z"/><path d="m355.779 248.788c28.779-27.515 44.629-64.584 44.629-104.381 0-24.157-6.082-48.053-17.591-69.127-1.843-3.376-5.908-5.065-9.479-3.634-4.266 1.709-5.958 6.683-3.816 10.586 10.393 18.933 15.886 40.433 15.886 62.176 0 35.662-14.204 68.882-39.994 93.539-12.036 11.507-18.939 27.594-18.939 44.136v34.547h-62.976v-108.817h54.27c19.211 0 35.557-13.469 38.867-32.026 2.3-12.891-1.954-25.741-11.21-34.695.738-3.348.968-6.818.664-10.256-1.35-15.282-13.355-27.927-28.545-30.065-4.383-.618-8.8-.368-13.021.713-4.803-12.148-16.662-20.476-30.104-20.476-6.621 0-13.048 2.05-18.421 5.767-5.371-3.717-11.799-5.767-18.42-5.767-13.442 0-25.303 8.329-30.104 20.476-4.222-1.081-8.639-1.331-13.021-.713-15.19 2.139-27.195 14.783-28.545 30.065-.304 3.438-.075 6.909.663 10.256-9.255 8.954-13.509 21.805-11.209 34.695 3.311 18.558 19.656 32.026 38.867 32.026h2.428c4.107 0 7.688-3.165 7.811-7.27.127-4.247-3.278-7.73-7.497-7.73h-2.742c-11.933 0-22.068-8.269-24.1-19.661-1.612-9.03 2.036-18.04 9.517-23.507 2.812-2.055 3.713-5.758 2.426-8.994-1.072-2.694-1.483-5.551-1.223-8.495.742-8.403 7.343-15.356 15.696-16.532 2.025-.286 3.801-.218 5.323.015 7.232 1.106 12.762 7.277 12.965 14.59.003.12.006.242.007.364.046 4.031 3.096 7.556 7.123 7.754 4.315.212 7.879-3.222 7.879-7.491 0-11.05-4.524-18.033-8.969-22.229 2.096-7.393 8.903-12.62 16.705-12.62 4.883 0 9.571 2.082 12.865 5.712.465.512.975.99 1.57 1.344 3.325 1.975 7.224 1.209 9.539-1.343 3.295-3.631 7.985-5.713 12.867-5.713 8.289 0 15.456 5.901 17.041 14.025.558 2.875 2.356 5.326 4.934 6.724.021.012.042.022.063.034 2.685 1.46 5.944 1.573 8.728.305 4.537-2.073 9.785-2.224 14.657-.316 6.397 2.506 10.736 8.609 11.313 15.456.229 2.714-.114 5.353-1.02 7.859-1.429 1.893-7.533 8.799-19.867 7.768-4.391-.378-8.256 3.165-8.12 7.724.115 3.86 3.315 6.948 7.164 7.246 1.202.093 2.367.137 3.5.137 11.491 0 19.456-4.533 24.345-8.693 4.151 5.275 5.924 12.069 4.71 18.875-2.031 11.393-12.167 19.661-24.1 19.661h-90.495c-4.107 0-7.688 3.165-7.811 7.27-.127 4.247 3.278 7.73 7.497 7.73h21.539v108.816h-62.976v-34.547c0-16.617-6.791-32.597-18.631-43.842-26.263-24.946-40.575-58.628-40.299-94.841.258-33.858 13.654-65.849 37.722-90.076 24.068-24.229 55.967-37.836 89.819-38.312 37.857-.546 73.95 15.462 98.992 43.883 2.738 3.108 7.478 3.408 10.585.669 3.108-2.738 3.407-7.478.669-10.585-27.941-31.711-68.237-49.544-110.456-48.963-37.798.531-73.4 15.709-100.25 42.738-26.848 27.026-41.792 62.73-42.08 100.533-.303 39.824 16.087 78.397 44.969 105.831 8.872 8.427 13.961 20.442 13.961 32.966v34.547h-7.617c-2.896 0-5.786.597-8.357 1.929-6.65 3.447-10.169 10.487-9.391 17.495l2.781 25.042h-4.233c-4.107 0-7.688 3.165-7.811 7.27-.127 4.247 3.278 7.73 7.497 7.73h6.213l3.412 30.719h-3.735c-4.107 0-7.688 3.165-7.811 7.27-.127 4.247 3.278 7.73 7.497 7.73h5.717c1.256 10.786 4.173 21.125 8.564 30.72h-1.787c-4.107 0-7.688 3.165-7.811 7.27-.127 4.247 3.278 7.73 7.497 7.73h10.58c7.73 11.303 17.779 21.07 29.739 28.647 3.781 2.394 8.892.988 10.839-3.221 1.594-3.448.177-7.545-3.026-9.587-6.996-4.46-13.22-9.8-18.561-15.839h130.581c-16.009 18.164-39.429 29.465-65.302 29.465-7.088 0-14.189-.875-21.107-2.602-4.082-1.023-8.214 1.516-9.136 5.645-.897 4.017 1.8 7.995 5.796 8.981 8.013 1.975 16.237 2.976 24.449 2.976 34.802 0 65.82-17.441 84.271-44.465h10.265c4.107 0 7.688-3.165 7.811-7.27.127-4.247-3.278-7.73-7.497-7.73h-2.105c4.351-9.505 7.299-19.827 8.568-30.72h5.403c4.107 0 7.688-3.165 7.811-7.27.127-4.247-3.278-7.73-7.497-7.73h-4.049l3.411-30.719h5.899c4.107 0 7.688-3.165 7.811-7.27.127-4.247-3.278-7.73-7.497-7.73h-4.547l2.742-24.691c.32-2.88.044-5.82-1-8.523-2.697-6.984-9.302-11.252-16.347-11.252h-7.979v-34.547c0-12.467 5.214-24.602 14.305-33.294zm-23.849 203.745h-151.864c-5.254-9.38-8.766-19.766-10.262-30.72h172.39c-1.514 11.082-5.071 21.443-10.264 30.72zm11.958-45.719h-175.778l-3.412-30.719h182.602zm7.423-74.355c.277.311.727.974.619 1.938l-2.965 26.698h-185.933l-2.965-26.698c-.106-.963.343-1.627.62-1.938.278-.31.889-.83 1.857-.83h186.908c.97 0 1.581.521 1.859.83z"/></g></g></svg>